<svg version="1.1" id="Capa_1" xmlns="http://www.w3.org/2000/svg" xmlns:xlink="http://www.w3.org/1999/xlink" x="0px" y="0px" viewBox="0 0 511.999 511.999" style="enable-background:new 0 0 511.999 511.999;" xml:space="preserve"><path style="fill:#EDEBED;" d="M495.484,281.408l-26.778-26.778c-9.292-9.292-21.895-14.513-35.037-14.513H15.399 c-7.013,0-13.63,4.561-15.077,11.422c-1.547,7.337,2.617,14.381,9.382,16.749l131.614,46.065 c15.782,5.524,32.383,8.345,49.104,8.345h296.803c13.682,0,24.774-11.092,24.774-24.774l0,0 C512,288.803,504.606,281.408,495.484,281.408L495.484,281.408z"></path><g><path style="fill:#BEF0CD;" d="M38.241,144.187c-3.09-2.852-7.141-4.436-11.346-4.436H5.782c-2.854,0-4.87,2.796-3.967,5.504 l31.621,94.863h131.623c-14.718,0-28.897-5.543-39.711-15.527L38.241,144.187z"></path><path style="fill:#BEF0CD;" d="M495.484,281.409l-6.988-6.988H27.225l114.093,39.932c2.748,0.962,5.55,1.734,8.345,2.532 c2.074,0.592,4.148,1.16,6.244,1.66c6.727,1.607,13.548,2.771,20.434,3.426c4.676,0.446,9.37,0.727,14.081,0.727h296.803 c13.682,0,24.774-11.092,24.774-24.774C512,288.803,504.606,281.409,495.484,281.409z"></path></g><path style="fill:#A0DCBE;" d="M162.488,300.502l-88.166-26.081H27.225l109.888,38.461c3.404,1.191,9.021,2.996,12.49,3.986 c2.094,0.598,4.189,1.172,6.305,1.678c6.727,1.607,13.548,2.771,20.434,3.426c4.676,0.446,9.37,0.727,14.081,0.727h296.803 c11.238,0,20.619-7.531,23.651-17.786H192.942C182.631,304.912,172.375,303.427,162.488,300.502z"></path><path style="fill:#DBD9DC;" d="M313.806,289.667l-86.001-86.001c-3.097-3.097-7.298-4.837-11.679-4.837h-34.449v8.258 l50.959,101.918c4.197,8.393,12.775,13.695,22.159,13.695h59.011L313.806,289.667L313.806,289.667z"></path><path style="fill:#C9C6CA;" d="M231.226,281.409h-33.032c-4.565,0-8.258-3.694-8.258-8.258s3.694-8.258,8.258-8.258h33.032 c4.565,0,8.258,3.694,8.258,8.258S235.79,281.409,231.226,281.409z"></path><path style="fill:#DBD9DC;" d="M99.097,281.405H24.774c-4.565,0-8.258-3.694-8.258-8.258s3.694-8.258,8.258-8.258h74.323 c4.565,0,8.258,3.694,8.258,8.258S103.661,281.405,99.097,281.405z"></path><g><path style="fill:#DCF5FF;" d="M454.194,207.086h-16.516c-4.565,0-8.258-3.694-8.258-8.258c0-4.556-3.702-8.258-8.258-8.258 c-2.306,0-4.435,0.927-6.016,2.605c-2.992,3.185-7.315,4.597-11.492,3.806c-4.097-0.766-7.484-3.54-9.065-7.427 c-3.806-9.419-12.823-15.5-22.976-15.5s-19.169,6.081-22.976,15.492c-1.581,3.895-4.968,6.669-9.065,7.435 c-4.202,0.79-8.492-0.621-11.476-3.79c-1.597-1.694-3.726-2.621-6.032-2.621c-4.556,0-8.258,3.702-8.258,8.258 c0,4.565-3.694,8.258-8.258,8.258h-24.774c-4.565,0-8.258-3.694-8.258-8.258s3.694-8.258,8.258-8.258h17.927 c3.411-9.613,12.597-16.516,23.363-16.516c4.911,0,9.71,1.484,13.75,4.177c7.282-12.726,20.798-20.694,35.798-20.694 c14.992,0,28.508,7.96,35.798,20.694c4.032-2.694,8.831-4.177,13.75-4.177c10.766,0,19.952,6.903,23.363,16.516h9.669 c4.565,0,8.258,3.694,8.258,8.258S458.758,207.086,454.194,207.086z"></path><path style="fill:#DCF5FF;" d="M280.774,174.054h-49.548c-4.565,0-8.258-3.694-8.258-8.258s3.694-8.258,8.258-8.258h49.548 c4.565,0,8.258,3.694,8.258,8.258S285.339,174.054,280.774,174.054z"></path><path style="fill:#DCF5FF;" d="M198.194,174.054h-8.258c-4.565,0-8.258-3.694-8.258-8.258s3.694-8.258,8.258-8.258h8.258 c4.565,0,8.258,3.694,8.258,8.258S202.758,174.054,198.194,174.054z"></path><path style="fill:#DCF5FF;" d="M156.903,372.247c-4.565,0-8.258-3.694-8.258-8.258c0-4.556-3.702-8.258-8.258-8.258 c-2.315,0-4.54,0.984-6.097,2.694c-2.903,3.202-7.177,4.653-11.379,3.871c-4.113-0.75-7.492-3.532-9.032-7.427 c-3.766-9.508-12.806-15.653-23.04-15.653c-13.661,0-24.774,11.113-24.774,24.774c0,4.565-3.694,8.258-8.258,8.258H33.032 c-4.565,0-8.258-3.694-8.258-8.258s3.694-8.258,8.258-8.258h17.347c3.839-18.823,20.516-33.032,40.46-33.032 c15.024,0,28.516,7.952,35.798,20.685c4.04-2.694,8.823-4.169,13.75-4.169c13.661,0,24.774,11.113,24.774,24.774 C165.161,368.554,161.468,372.247,156.903,372.247z"></path><path style="fill:#DCF5FF;" d="M222.968,372.247h-33.032c-4.565,0-8.258-3.694-8.258-8.258s3.694-8.258,8.258-8.258h33.032 c4.565,0,8.258,3.694,8.258,8.258S227.532,372.247,222.968,372.247z"></path><path style="fill:#DCF5FF;" d="M264.258,372.247H256c-4.565,0-8.258-3.694-8.258-8.258s3.694-8.258,8.258-8.258h8.258 c4.565,0,8.258,3.694,8.258,8.258S268.823,372.247,264.258,372.247z"></path></g><g><circle style="fill:#6F6571;" cx="132.13" cy="273.149" r="8.258"></circle><circle style="fill:#6F6571;" cx="165.16" cy="273.149" r="8.258"></circle><circle style="fill:#6F6571;" cx="355.1" cy="273.149" r="8.258"></circle><circle style="fill:#6F6571;" cx="388.13" cy="273.149" r="8.258"></circle><circle style="fill:#6F6571;" cx="421.16" cy="273.149" r="8.258"></circle><path style="fill:#6F6571;" d="M445.935,273.15c0,4.565,3.694,8.258,8.258,8.258h41.29l-16.516-16.516h-24.775 C449.629,264.892,445.935,268.586,445.935,273.15z"></path></g><path style="fill:#C9C6CA;" d="M214.71,215.344h-49.548c-4.565,0-8.258-3.694-8.258-8.258s3.694-8.258,8.258-8.258h49.548 c4.565,0,8.258,3.694,8.258,8.258S219.274,215.344,214.71,215.344z"></path><path style="fill:#9C969E;" d="M289.032,314.441h-16.516c-4.561,0-8.258-3.697-8.258-8.258l0,0c0-4.561,3.697-8.258,8.258-8.258 h16.516c4.561,0,8.258,3.697,8.258,8.258l0,0C297.29,310.744,293.593,314.441,289.032,314.441z"></path><path style="fill:#C9C6CA;" d="M297.29,322.699h33.032c9.122,0,16.516-7.395,16.516-16.516l0,0c0-9.122-7.395-16.516-16.516-16.516 H297.29c-9.122,0-16.516,7.395-16.516,16.516l0,0C280.774,315.304,288.169,322.699,297.29,322.699z"></path></svg>